<?xml version="1.0" encoding="utf-8"?>
<!-- Generator: Adobe Illustrator 28.3.0, SVG Export Plug-In . SVG Version: 6.00 Build 0)  -->
<svg version="1.1" id="Layer_1" xmlns="http://www.w3.org/2000/svg" xmlns:xlink="http://www.w3.org/1999/xlink" x="0px" y="0px"
	 viewBox="0 0 645.2 318.9" style="enable-background:new 0 0 645.2 318.9;" xml:space="preserve">
<style type="text/css">
	.st0{fill:#FFFFFF;}
</style>
<path class="st0" d="M483.1,32.6l11.8,3.8l11.6,4l11.9,3.8l9.2,8.7l5.3,2.4h39.8c0,0,1.3,0,3.2-0.1l-4.2-3.9l-6.9-9.5l-8.8-7.6
	l-10.6-5l-8.5-8.4l-11-4l-10.2-5.6l-11.4-2.6l-11.2-2.9l-11.5-0.9l-11.2-4.5L458.4,0l-11.6,1.5l-11.3,2.8L424,5.6l-11,3.6l-11.5,2.2
	l-10.9,4.2l-10.3,5.6l-9.5,6.7l-8.5,7.9l-9.4,6.8l-9,7.4l-7,10.5L325.1,60l-11.4-1l-10.7,0.4l5.6,8.5l4.9,9.8l5.4,9.5l6.4,8.9
	l4.7,9.9l4.5,10l6.7,8.8l6.5,8.9l5.4,9.5l4.5,8.7l5.6-9.4l6.2-10.4l5.8-10.6l5.5-10.7l5.6-10.7l6.1-10.4l7.4-9.7l4.7-11.2l6.8-10
	l-10.9,1.5l-10.9-3.1l-11.2,2.4l9.8-8.7l11.5-4.8l11.2-5l11.7-3.7l11.5-4.7l12.2-2.2l12.4,0.4l12.2,2.2L483.1,32.6L483.1,32.6z"/>
<path class="st0" d="M638.3,237.5v-11.3l-2-5.6v-13.3l-2.8-15.4V173l-9.7-53.5l2-4.4v-6.6l-3.2-5.1V95l-2.4-13.3l1.2-4.1V67.3
	l-5.7-3.8l-7.7,1.8l-13.3-1.5l-21.8,0.8h-60.6l-9.7-1l-5.3,1.3v5.4l1.6,6.4l-7.3,42.7l-0.8,20.7l-2.8,6.1l-3.6,28.9v12.3l-4,28.1
	v4.9l-3.2,7.9V241l-2,3.6v2.3l3.6,2.8l13.8-2l8.1,1.5h0.3l0.9-2.5c0.3-0.8,0.7-1.5,1.2-2.2l6.7-9.4L515,225c0.1-0.2,0.2-0.3,0.3-0.5
	l6.1-10l5.2-10.5c0.3-0.7,0.8-1.3,1.2-1.9l6.8-8l3.2-10.1c0.3-0.9,0.7-1.7,1.2-2.5l6.9-10l6.8-9.4c1.7-2.4,4.5-3.8,7.5-3.8
	c0.1,0,0.1,0,0.2,0c3,0.1,5.8,1.6,7.5,4.2l6.2,9.5l6.7,10c0.1,0.2,0.2,0.4,0.3,0.5l6.1,10.5c0.2,0.4,0.5,0.8,0.6,1.3l4.1,10.5
	l6.1,9.4c0.1,0.2,0.2,0.4,0.3,0.5l5.7,10.3l6.3,9.8l6.9,9.8c0.4,0.5,0.7,1.1,0.9,1.7l1.4,3.3l19.7,1l4.5-2.8L638.3,237.5
	L638.3,237.5z"/>
<path class="st0" d="M609.5,250.1l-7-10l-6.5-10.2l-5.8-10.6l-6.6-10.2l-4.5-11.4l-6.1-10.5l-6.8-10.1l-6.2-9.5l-6.7,9.2l-6.9,10
	l-3.7,11.8l-8,9.4l-5.3,10.9l-6.3,10.3l-5.7,10.7l-7.1,9.9l-4,10.8l10.1-0.2l11-0.2h11.2l-10.8,7.2l-10.4,6.4l-11.4,4.5l-11.3,4.7
	l-11.9,2.7l-12.1,2l-12.2-0.4l-12.2,0.5l-12.5-0.1l-11.3-5.5l-12.6-1.3l-11.1-5.6l-9.3-8.4l-3.3-1.4c-0.9,0.6-1.9,1.1-3.1,1.4
	l-7.3,1.8c-0.7,0.2-1.5,0.3-2.2,0.3c-0.1,0-0.3,0-0.4,0l-29.3-1.4l1.5,1.2l7.1,9.3l9.9,6.2l9.4,6.6l9.7,6.1l9.9,6l10.5,4.8l11,3.5
	l11.3,2.4l11.4,1.7l11.4,1.4l11.5,2.1L470,317l11.6-0.3l11.1-3.6l12,0.1l10.2-6l10.6-4.6l11.1-3.9l10-6l9.7-6.5l7.7-8.9l8-8.3l8.5-8
	l11.4,1.6l11.4-2.4l10.9,0.7L609.5,250.1L609.5,250.1z"/>
<path class="st0" d="M456,69.1l-38.8-2.6l-4.6,6.8l-4.4,10.4c-0.3,0.7-0.7,1.4-1.2,2L400,95l-5.7,9.7l-5.5,10.5l-5.5,10.7
	c0,0-6,11-6,11.1l-11.9,19.8c-0.5,0.9-1.2,1.7-2,2.3l-3.6,6.5l-0.8,3.2l-3.2-0.4l-1.9-3.8l-0.5-4.3c-1.7-0.9-3.1-2.2-4-4l-4.4-8.6
	l-5-8.9l-6.2-8.4l-6.6-8.6c-0.4-0.5-0.8-1.1-1.1-1.8l-4.5-10l-4.3-9l-5.9-8.2c-0.2-0.3-0.4-0.6-0.5-0.9l-5.4-9.5
	c-0.1-0.1-0.1-0.3-0.2-0.4l-4.7-9.3l-3.9-5.9h-8.9L259.9,63l-5.7,1.8l2.4,5.9v12l1.2,10.7l-5.7,25.6v16.1l2,5.4l-2.8,6.6v23.5
	l-1.2,12v18.2L249,207v12.3l-2.4,6.4l2.8,19.2l-3.2,6.6v3.8l2.4,2.1l9.7-2.1l8.9,1.5l27.9,1l7.3-2.6v-8.7l1.2-2.6l4-62.7l1.2,2
	l3.6,18.7l2.4,2.8l2,3.8l-2,4.9v4.9l0,0l2.4,3.3l0,0l4.5,24.8v6.1l2,3.3l3.2,2h14.5l31.9,1.5l7.3-1.8v-8.4l22.6-77l4-3.8l-2.4,17.6
	v16.9l-0.8,7.2v11.5l-5.7,32.5l3.6,5.4l2.8,0.8l10.1-1.3l11.3,1.5l12.9-1.5l12.9,2l4.9-1.3v-3.1l-1.6-4.1v-14.3l2.8-5.9v-14.8
	l-1.6-7.2l4.9-9.5l-3.6-5.6l1.6-27.9V152l2-16.9V109l4.5-8.2V95l-1.2-2.8V78.6l3.2-5.4v-5.4h-6.5L456,69.1L456,69.1z"/>
<path class="st0" d="M62.6,194.7l-2.4-23.5v-13.6l-2-16.6l0.8-12.8l3.2-5.4l-4.8-19.4l2.8-6.6v-4.9l-3.6-7.2l2.8-16.1L55,65.8h-8.5
	l-11.7,1.3h-23l-3.2-0.5H2.8l-1.3,0.5l-0.3,1.6L2.3,71l-1.5,1.9l0,0.6l1.6,26.9L0,106.7v20.2l2,4.6v27.6L0.4,173l4,17.6L2.8,196v6.6
	l2,4.4l-2.4,21.2l2.4,7.9L1.6,252l5.7,3.3H34l12.1-1.8l10.9,2.6l6.5-0.8v-2.6l-2.4-3.3l2.4-26.9l-1.7-5.2l-0.3-0.1"/>
<path class="st0" d="M89.7,225.2l6.9,10.5l5.2,3.6l28.7,8.7l27.1,3.1l11.3-2.3l17.4-0.8l20.6-7.4l12.5-7.9l6.5-9.5v-14.8l0,0
	l-0.8-3.6l3.2-20.7v-10.7l1.6-4.1v-3.1l-3.2-2.6l-10.5,2.6h-27.9l-1.9-2.3l-3.7,0.3l-1.2,1.3l-6.1-1.3H171l-2.8-1l0,0l-1.3,0.3l0,0
	l-0.6,1.4l0,0l-1.1,1.7l0,0l0.5,1.7l0,0l2,1v3.3l-0.2,0.4l0,0l0.2,0.9v2.6h0l1.2,1.5l0.5,2.4l-3.6,38.1l-2.4,4.4l-6.1,1.3l-7.7-1.3
	l-2.8-3.8v-33l0.8-4.6l0.7-1.8l0.5-1.6l-3.2-21.9v-10.2l-2-5.4l2-14.6l1.2-18.9l-1.2-4.1v-10l2-4.6l3.6-2.3h10.5l5.7,2.3l2.4,7.2
	v6.1l-3.6,6.1l2.8,5.9v22.2l-3.2,4.9v2l3.6,2l11.7-2.6l2.4,1.5l1.3-1h13.8l23.5,1.8l5.2-1.3l2.4-1.5l-1.2-3.8l-1.2-29.9l1.2-10.5
	l-4.5-11l-9.3-12.5l-11.7-7.4l-9.7-2.8l-28.7-3.3h-17l-21.4,2.6h-10.5L90.1,78.1l-1.2,9.7l-2.8,7.4l-1.2,11.5l-1.6,3.8l3.6,18.2V139
	l-2,5.4v15.4l1.2,4.1l-3.2,2.3v3.8l0.8,0.8v7.2l1.2,21.1v7.8"/>
</svg>
